<?xml version="1.0" encoding="UTF-8" standalone="no"?>
<svg
   xmlns:dc="http://purl.org/dc/elements/1.1/"
   xmlns:cc="http://creativecommons.org/ns#"
   xmlns:rdf="http://www.w3.org/1999/02/22-rdf-syntax-ns#"
   xmlns:svg="http://www.w3.org/2000/svg"
   xmlns="http://www.w3.org/2000/svg"
   xmlns:sodipodi="http://sodipodi.sourceforge.net/DTD/sodipodi-0.dtd"
   xmlns:inkscape="http://www.inkscape.org/namespaces/inkscape"
   id="si-canvas"
   touch-action="none"
   width="750"
   height="420"
   style="cursor: crosshair;"
   version="1.1"
   inkscape:version="0.91 r13725"
   sodipodi:docname="force_from_potential_energy_background.svg">
  <metadata
     id="metadata171">
    <rdf:RDF>
      <cc:Work
         rdf:about="">
        <dc:format>image/svg+xml</dc:format>
        <dc:type
           rdf:resource="http://purl.org/dc/dcmitype/StillImage" />
      </cc:Work>
    </rdf:RDF>
  </metadata>
  <defs
     id="defs169">
    <marker
       inkscape:stockid="Arrow2Lend"
       orient="auto"
       refY="0.0"
       refX="0.0"
       id="Arrow2Lend"
       style="overflow:visible;"
       inkscape:isstock="true">
      <path
         id="path4242"
         style="fill-rule:evenodd;stroke-width:0.625;stroke-linejoin:round;stroke:#333333;stroke-opacity:1;fill:#000000;fill-opacity:1"
         d="M 8.7185878,4.0337352 L -2.2072895,0.016013256 L 8.7185884,-4.0017078 C 6.9730900,-1.6296469 6.9831476,1.6157441 8.7185878,4.0337352 z "
         transform="scale(1.1) rotate(180) translate(1,0)" />
    </marker>
    <clipPath
       id="clipPath">
      <rect
         y="-0.375"
         x="-0.62503052"
         height="420.75"
         width="750.75006"
         id="rect5098"
         style="color:#000000;clip-rule:nonzero;overflow:visible;visibility:visible;opacity:1;isolation:auto;mix-blend-mode:normal;color-interpolation:sRGB;color-interpolation-filters:linearRGB;solid-color:#000000;solid-opacity:1;fill:none;fill-opacity:1;fill-rule:nonzero;stroke:#000000;stroke-width:0.24999999;stroke-linecap:butt;stroke-linejoin:miter;stroke-miterlimit:3.25;stroke-dasharray:none;stroke-dashoffset:0;stroke-opacity:1;color-rendering:auto;image-rendering:auto;shape-rendering:auto;text-rendering:auto;enable-background:accumulate" />
    </clipPath>
  </defs>
  <sodipodi:namedview
     pagecolor="#ffffff"
     bordercolor="#666666"
     borderopacity="1"
     objecttolerance="10"
     gridtolerance="10"
     guidetolerance="10"
     inkscape:pageopacity="0"
     inkscape:pageshadow="2"
     inkscape:window-width="1440"
     inkscape:window-height="856"
     id="namedview167"
     showgrid="false"
     inkscape:zoom="1.6128266"
     inkscape:cx="95.026578"
     inkscape:cy="358.05042"
     inkscape:window-x="99"
     inkscape:window-y="14"
     inkscape:window-maximized="0"
     inkscape:current-layer="si-canvas" />
  <line
     id="line7"
     class="xminor"
     style="stroke:#f6f6f6;stroke-width:1px;shape-rendering:crispEdges"
     y2="0"
     y1="420"
     x2="0"
     x1="0" />
  <line
     id="line9"
     class="xminor"
     style="stroke:#f6f6f6;stroke-width:1px;shape-rendering:crispEdges"
     y2="0"
     y1="420"
     x2="26.785715"
     x1="26.785715" />
  <line
     id="line11"
     class="xminor"
     style="stroke:#f6f6f6;stroke-width:1px;shape-rendering:crispEdges"
     y2="0"
     y1="420"
     x2="80.35714"
     x1="80.35714" />
  <line
     id="line13"
     class="xminor"
     style="stroke:#f6f6f6;stroke-width:1px;shape-rendering:crispEdges"
     y2="0"
     y1="420"
     x2="107.14286"
     x1="107.14286" />
  <line
     id="line15"
     class="xminor"
     style="stroke:#f6f6f6;stroke-width:1px;shape-rendering:crispEdges"
     y2="0"
     y1="420"
     x2="133.92857"
     x1="133.92857" />
  <line
     id="line17"
     class="xminor"
     style="stroke:#f6f6f6;stroke-width:1px;shape-rendering:crispEdges"
     y2="0"
     y1="420"
     x2="187.5"
     x1="187.5" />
  <line
     id="line19"
     class="xminor"
     style="stroke:#f6f6f6;stroke-width:1px;shape-rendering:crispEdges"
     y2="0"
     y1="420"
     x2="214.28572"
     x1="214.28572" />
  <line
     id="line21"
     class="xminor"
     style="stroke:#f6f6f6;stroke-width:1px;shape-rendering:crispEdges"
     y2="0"
     y1="420"
     x2="241.07143"
     x1="241.07143" />
  <line
     id="line23"
     class="xminor"
     style="stroke:#f6f6f6;stroke-width:1px;shape-rendering:crispEdges"
     y2="0"
     y1="420"
     x2="294.64285"
     x1="294.64285" />
  <line
     id="line25"
     class="xminor"
     style="stroke:#f6f6f6;stroke-width:1px;shape-rendering:crispEdges"
     y2="0"
     y1="420"
     x2="321.42856"
     x1="321.42856" />
  <line
     id="line27"
     class="xminor"
     style="stroke:#f6f6f6;stroke-width:1px;shape-rendering:crispEdges"
     y2="0"
     y1="420"
     x2="348.21429"
     x1="348.21429" />
  <line
     id="line29"
     class="xminor"
     style="stroke:#f6f6f6;stroke-width:1px;shape-rendering:crispEdges"
     y2="0"
     y1="420"
     x2="375"
     x1="375" />
  <line
     id="line31"
     class="xminor"
     style="stroke:#f6f6f6;stroke-width:1px;shape-rendering:crispEdges"
     y2="0"
     y1="420"
     x2="401.78571"
     x1="401.78571" />
  <line
     id="line33"
     class="xminor"
     style="stroke:#f6f6f6;stroke-width:1px;shape-rendering:crispEdges"
     y2="0"
     y1="420"
     x2="428.57144"
     x1="428.57144" />
  <line
     id="line35"
     class="xminor"
     style="stroke:#f6f6f6;stroke-width:1px;shape-rendering:crispEdges"
     y2="0"
     y1="420"
     x2="455.35715"
     x1="455.35715" />
  <line
     id="line37"
     class="xminor"
     style="stroke:#f6f6f6;stroke-width:1px;shape-rendering:crispEdges"
     y2="0"
     y1="420"
     x2="508.92856"
     x1="508.92856" />
  <line
     id="line39"
     class="xminor"
     style="stroke:#f6f6f6;stroke-width:1px;shape-rendering:crispEdges"
     y2="0"
     y1="420"
     x2="535.71429"
     x1="535.71429" />
  <line
     id="line41"
     class="xminor"
     style="stroke:#f6f6f6;stroke-width:1px;shape-rendering:crispEdges"
     y2="0"
     y1="420"
     x2="562.5"
     x1="562.5" />
  <line
     id="line43"
     class="xminor"
     style="stroke:#f6f6f6;stroke-width:1px;shape-rendering:crispEdges"
     y2="0"
     y1="420"
     x2="616.07141"
     x1="616.07141" />
  <line
     id="line45"
     class="xminor"
     style="stroke:#f6f6f6;stroke-width:1px;shape-rendering:crispEdges"
     y2="0"
     y1="420"
     x2="642.85712"
     x1="642.85712" />
  <line
     id="line47"
     class="xminor"
     style="stroke:#f6f6f6;stroke-width:1px;shape-rendering:crispEdges"
     y2="0"
     y1="420"
     x2="669.64288"
     x1="669.64288" />
  <line
     id="line49"
     class="xminor"
     style="stroke:#f6f6f6;stroke-width:1px;shape-rendering:crispEdges"
     y2="0"
     y1="420"
     x2="723.21429"
     x1="723.21429" />
  <line
     id="line51"
     class="xminor"
     style="stroke:#f6f6f6;stroke-width:1px;shape-rendering:crispEdges"
     y2="0"
     y1="420"
     x2="750"
     x1="750" />
  <line
     id="line53"
     class="yminor"
     style="stroke:#f6f6f6;stroke-width:1px;shape-rendering:crispEdges"
     y2="420"
     y1="420"
     x2="750"
     x1="0" />
  <line
     id="line55"
     class="yminor"
     style="stroke:#f6f6f6;stroke-width:1px;shape-rendering:crispEdges"
     y2="403.84616"
     y1="403.84616"
     x2="750"
     x1="0" />
  <line
     id="line57"
     class="yminor"
     style="stroke:#f6f6f6;stroke-width:1px;shape-rendering:crispEdges"
     y2="387.69232"
     y1="387.69232"
     x2="750"
     x1="0" />
  <line
     id="line59"
     class="yminor"
     style="stroke:#f6f6f6;stroke-width:1px;shape-rendering:crispEdges"
     y2="355.38461"
     y1="355.38461"
     x2="750"
     x1="0" />
  <line
     id="line61"
     class="yminor"
     style="stroke:#f6f6f6;stroke-width:1px;shape-rendering:crispEdges"
     y2="339.23077"
     y1="339.23077"
     x2="750"
     x1="0" />
  <line
     id="line63"
     class="yminor"
     style="stroke:#f6f6f6;stroke-width:1px;shape-rendering:crispEdges"
     y2="323.07693"
     y1="323.07693"
     x2="750"
     x1="0" />
  <line
     id="line65"
     class="yminor"
     style="stroke:#f6f6f6;stroke-width:1px;shape-rendering:crispEdges"
     y2="306.92307"
     y1="306.92307"
     x2="750"
     x1="0" />
  <line
     id="line67"
     class="yminor"
     style="stroke:#f6f6f6;stroke-width:1px;shape-rendering:crispEdges"
     y2="274.61539"
     y1="274.61539"
     x2="750"
     x1="0" />
  <line
     id="line69"
     class="yminor"
     style="stroke:#f6f6f6;stroke-width:1px;shape-rendering:crispEdges"
     y2="258.46155"
     y1="258.46155"
     x2="750"
     x1="0" />
  <line
     id="line71"
     class="yminor"
     style="stroke:#f6f6f6;stroke-width:1px;shape-rendering:crispEdges"
     y2="242.30769"
     y1="242.30769"
     x2="750"
     x1="0" />
  <line
     id="line73"
     class="yminor"
     style="stroke:#f6f6f6;stroke-width:1px;shape-rendering:crispEdges"
     y2="226.15384"
     y1="226.15384"
     x2="750"
     x1="0" />
  <line
     id="line75"
     class="yminor"
     style="stroke:#f6f6f6;stroke-width:1px;shape-rendering:crispEdges"
     y2="210"
     y1="210"
     x2="750"
     x1="0" />
  <line
     id="line77"
     class="yminor"
     style="stroke:#f6f6f6;stroke-width:1px;shape-rendering:crispEdges"
     y2="193.84616"
     y1="193.84616"
     x2="750"
     x1="0" />
  <line
     id="line79"
     class="yminor"
     style="stroke:#f6f6f6;stroke-width:1px;shape-rendering:crispEdges"
     y2="177.69231"
     y1="177.69231"
     x2="750"
     x1="0" />
  <line
     id="line81"
     class="yminor"
     style="stroke:#f6f6f6;stroke-width:1px;shape-rendering:crispEdges"
     y2="161.53847"
     y1="161.53847"
     x2="750"
     x1="0" />
  <line
     id="line83"
     class="yminor"
     style="stroke:#f6f6f6;stroke-width:1px;shape-rendering:crispEdges"
     y2="145.38461"
     y1="145.38461"
     x2="750"
     x1="0" />
  <line
     id="line85"
     class="yminor"
     style="stroke:#f6f6f6;stroke-width:1px;shape-rendering:crispEdges"
     y2="113.07692"
     y1="113.07692"
     x2="750"
     x1="0" />
  <line
     id="line87"
     class="yminor"
     style="stroke:#f6f6f6;stroke-width:1px;shape-rendering:crispEdges"
     y2="96.92308"
     y1="96.92308"
     x2="750"
     x1="0" />
  <line
     id="line89"
     class="yminor"
     style="stroke:#f6f6f6;stroke-width:1px;shape-rendering:crispEdges"
     y2="80.769234"
     y1="80.769234"
     x2="750"
     x1="0" />
  <line
     id="line91"
     class="yminor"
     style="stroke:#f6f6f6;stroke-width:1px;shape-rendering:crispEdges"
     y2="64.615387"
     y1="64.615387"
     x2="750"
     x1="0" />
  <line
     id="line93"
     class="yminor"
     style="stroke:#f6f6f6;stroke-width:1px;shape-rendering:crispEdges"
     y2="32.307693"
     y1="32.307693"
     x2="750"
     x1="0" />
  <line
     id="line95"
     class="yminor"
     style="stroke:#f6f6f6;stroke-width:1px;shape-rendering:crispEdges"
     y2="16.153847"
     y1="16.153847"
     x2="750"
     x1="0" />
  <line
     id="line97"
     class="yminor"
     style="stroke:#f6f6f6;stroke-width:1px;shape-rendering:crispEdges"
     y2="0"
     y1="0"
     x2="750"
     x1="0" />
  <line
     x1="53.57143"
     x2="53.57143"
     y1="420"
     y2="0"
     style="stroke:#f0f0f0;stroke-width:2px;shape-rendering:crispEdges"
     class="xmajor"
     id="line101" />
  <text
     x="53.57143"
     y="449"
     style="font-size:14px;text-anchor:middle;fill:#333333"
     class="ticLabel"
     id="text103">-6</text>
  <line
     x1="160.71428"
     x2="160.71428"
     y1="420"
     y2="0"
     style="stroke:#f0f0f0;stroke-width:2px;shape-rendering:crispEdges"
     class="xmajor"
     id="line107" />
  <text
     x="160.71428"
     y="449"
     style="font-size:14px;text-anchor:middle;fill:#333333"
     class="ticLabel"
     id="text109">-4</text>
  <line
     x1="267.85715"
     x2="267.85715"
     y1="420"
     y2="0"
     style="stroke:#f0f0f0;stroke-width:2px;shape-rendering:crispEdges"
     class="xmajor"
     id="line113" />
  <text
     x="267.85715"
     y="449"
     style="font-size:14px;text-anchor:middle;fill:#333333"
     class="ticLabel"
     id="text115">-2</text>
  <line
     x1="482.14285"
     x2="482.14285"
     y1="420"
     y2="0"
     style="stroke:#f0f0f0;stroke-width:2px;shape-rendering:crispEdges"
     class="xmajor"
     id="line119" />
  <text
     x="482.14285"
     y="449"
     style="font-size:14px;text-anchor:middle;fill:#333333"
     class="ticLabel"
     id="text121">2</text>
  <line
     x1="589.28571"
     x2="589.28571"
     y1="420"
     y2="0"
     style="stroke:#f0f0f0;stroke-width:2px;shape-rendering:crispEdges"
     class="xmajor"
     id="line125" />
  <text
     x="589.28571"
     y="449"
     style="font-size:14px;text-anchor:middle;fill:#333333"
     class="ticLabel"
     id="text127">4</text>
  <line
     x1="696.42859"
     x2="696.42859"
     y1="420"
     y2="0"
     style="stroke:#f0f0f0;stroke-width:2px;shape-rendering:crispEdges"
     class="xmajor"
     id="line131" />
  <text
     x="696.42859"
     y="449"
     style="font-size:14px;text-anchor:middle;fill:#333333"
     class="ticLabel"
     id="text133">6</text>
  <line
     x1="0"
     x2="750"
     y1="371.53845"
     y2="371.53845"
     style="stroke:#f0f0f0;stroke-width:2px;shape-rendering:crispEdges"
     class="ymajor"
     id="line137" />
  <text
     x="-33"
     y="376.53845"
     style="font-size:14px;text-anchor:end;fill:#333333"
     class="ticLabel"
     id="text139">-10</text>
  <line
     x1="0"
     x2="750"
     y1="290.76923"
     y2="290.76923"
     style="stroke:#f0f0f0;stroke-width:2px;shape-rendering:crispEdges"
     class="ymajor"
     id="line143" />
  <text
     x="-33"
     y="295.76923"
     style="font-size:14px;text-anchor:end;fill:#333333"
     class="ticLabel"
     id="text145">-5</text>
  <line
     x1="0"
     x2="750"
     y1="129.23077"
     y2="129.23077"
     style="stroke:#f0f0f0;stroke-width:2px;shape-rendering:crispEdges"
     class="ymajor"
     id="line149" />
  <text
     x="-33"
     y="134.23077"
     style="font-size:14px;text-anchor:end;fill:#333333"
     class="ticLabel"
     id="text151">5</text>
  <line
     x1="0"
     x2="750"
     y1="48.46154"
     y2="48.46154"
     style="stroke:#f0f0f0;stroke-width:2px;shape-rendering:crispEdges"
     class="ymajor"
     id="line155" />
  <text
     x="-33"
     y="53.46154"
     style="font-size:14px;text-anchor:end;fill:#333333"
     class="ticLabel"
     id="text157">10</text>
  <text
     id="text159"
     class="ticLabel"
     style="font-size:14px;text-anchor:end;fill:#333333"
     y="225"
     x="-33">0</text>
  <line
     id="line161"
     class="xaxis"
     style="stroke:#333333;stroke-width:1px;shape-rendering:crispEdges;marker-end:url(#Arrow2Lend)"
     y2="210"
     y1="210"
     x2="750"
     x1="0" />
  <line
     id="line163"
     class="yaxis"
     style="stroke:#333333;stroke-width:1px;shape-rendering:crispEdges"
     y2="0"
     y1="420"
     x2="375"
     x1="375" />
  <path
     style="clip-rule:nonzero;fill:none;stroke:#4682b4;stroke-width:3;stroke-linecap:square;stroke-linejoin:miter;stroke-miterlimit:3.25;stroke-dasharray:none;stroke-opacity:1"
     d="m 95.81788,10.609989 0.169303,0.875595 0.173369,0.873129 0.342672,1.738825 0.685365,3.450454 1.37073,6.784646 2.741441,13.101819 5.48287,24.405444 0.18546,0.786557 0.18949,0.78408 0.37089,1.558262 0.74181,3.084388 1.48762,6.04756 2.97125,11.597962 5.94652,21.28892 0.17335,0.58373 0.17334,0.58126 0.34672,1.15757 0.69343,2.29287 1.38685,4.48189 2.77771,8.58283 0.34672,1.03885 0.34671,1.02895 0.69342,2.03564 1.38683,3.97729 2.77775,7.59099 0.16932,0.45017 0.16931,0.44769 0.3427,0.89044 0.68132,1.75862 1.35862,3.43561 2.72129,6.53731 0.33865,0.78655 0.34268,0.77913 0.68134,1.53848 1.35862,3.00029 2.72127,5.68396 0.18547,0.37102 0.18544,0.36855 0.36688,0.73213 0.73776,1.44202 1.47553,2.79251 2.95512,5.24122 0.18141,0.31413 0.18547,0.30918 0.37089,0.61589 0.73778,1.21198 1.47553,2.33987 2.95107,4.35821 0.17337,0.23992 0.16933,0.23993 0.34671,0.4749 0.6894,0.93248 1.37475,1.7982 2.75755,3.3342 0.16935,0.1954 0.17335,0.1954 0.34671,0.38833 0.68537,0.75687 1.37877,1.45191 2.75354,2.65895 0.18948,0.1682 0.18545,0.16819 0.37493,0.32897 0.74584,0.64062 1.49166,1.21446 0.18545,0.14593 0.18949,0.14346 0.37089,0.28445 0.74582,0.5491 1.49571,1.03638 0.18545,0.12367 0.18546,0.12119 0.37493,0.23992 0.74583,0.46254 1.49167,0.86323 0.18546,0.10141 0.18946,0.10141 0.37092,0.19787 0.74583,0.37845 1.4957,0.6975 0.18142,0.0816 0.18545,0.0767 0.36687,0.15583 0.72971,0.29434 0.18545,0.0693 0.18141,0.0693 0.36686,0.13604 0.73375,0.25477 0.18141,0.0618 0.18545,0.0593 0.36688,0.11873 0.7297,0.21766 0.18546,0.0519 0.18141,0.0519 0.36688,0.0989 0.73373,0.18303 0.18141,0.042 0.18547,0.042 0.36687,0.0816 0.18141,0.0396 0.18544,0.0371 0.36285,0.0717 0.18544,0.0346 0.18144,0.0322 0.36685,0.0643 0.73374,0.11378 0.18142,0.0248 0.18545,0.0248 0.36686,0.047 0.18142,0.0223 0.18546,0.0198 0.36285,0.0396 0.18544,0.0173 0.18142,0.0148 0.18545,0.0148 0.18143,0.0148 0.18544,0.0148 0.18143,0.0124 0.18543,0.01 0.18144,0.01 0.16932,0.01 0.17336,0.007 0.1693,0.007 0.17337,0.005 0.33865,0.01 0.17335,0.003 0.16932,0.003 0.17336,0.003 0.51201,0 0.33864,-0.005 0.17336,-0.003 0.16932,-0.005 0.17335,-0.005 0.16934,-0.005 0.16932,-0.007 0.17336,-0.007 0.16934,-0.007 0.17334,-0.01 0.33866,-0.0223 0.17336,-0.0124 0.1693,-0.0124 0.34269,-0.0272 0.16932,-0.0149 0.17336,-0.0148 0.33865,-0.0346 0.17335,-0.0174 0.16932,-0.0198 0.34268,-0.042 0.16934,-0.0198 0.17334,-0.0223 0.3427,-0.047 0.16931,-0.0248 0.16932,-0.0272 0.34268,-0.0519 0.68536,-0.11625 0.16934,-0.0297 0.16933,-0.0322 0.34266,-0.0668 0.68537,-0.13851 1.36668,-0.3166 0.37092,-0.094 0.37088,-0.0965 0.74181,-0.20529 1.47957,-0.45017 0.18545,-0.0593 0.55636,-0.18551 0.74179,-0.25724 1.48361,-0.55405 0.18544,-0.0717 0.55636,-0.22261 0.73778,-0.3067 1.4836,-0.65052 2.96721,-1.43954 0.16931,-0.089 0.17336,-0.0891 0.34671,-0.18304 0.69342,-0.37101 1.38283,-0.76924 2.76965,-1.64484 5.53529,-3.69037 0.6773,-0.4848 0.67731,-0.49469 1.35861,-1.00669 2.71323,-2.09253 5.42645,-4.47198 11.77609,-10.78173 10.98996,-10.98454 11.90912,-12.41421 11.69146,-12.23364 10.90529,-11.08348 11.82852,-11.30858 11.03834,-9.59447 0.18949,-0.15336 0.18545,-0.15336 0.37493,-0.30423 0.74581,-0.60599 1.49572,-1.1922 2.9914,-2.31762 5.98278,-4.3483 0.18143,-0.12862 0.18543,-0.12615 0.36687,-0.25229 0.73375,-0.499634 1.46746,-0.98196 2.93496,-1.887237 0.18546,-0.116246 0.18142,-0.113784 0.36687,-0.227552 0.73374,-0.447698 1.46748,-0.880539 2.93898,-1.676995 0.16934,-0.09399 0.17335,-0.09399 0.34267,-0.187984 0.68133,-0.368544 1.37071,-0.722239 2.74145,-1.367815 0.16933,-0.08163 0.16932,-0.08409 1.02804,-0.482322 1.37074,-0.623308 2.7374,-1.16746 0.18545,-0.07668 0.18545,-0.0742 0.37494,-0.15089 0.74178,-0.29186 1.48361,-0.559 0.18546,-0.06926 0.55635,-0.200349 0.74179,-0.262181 1.48764,-0.499636 0.18545,-0.05933 0.18545,-0.06187 1.11269,-0.348752 1.48361,-0.437805 2.97126,-0.781603 0.17334,-0.04204 0.17338,-0.03956 0.34669,-0.08162 0.69343,-0.1583 1.38685,-0.294342 0.34671,-0.06925 0.34672,-0.06678 0.69341,-0.131093 1.3828,-0.23745 0.17336,-0.02969 0.17336,-0.0272 1.04012,-0.155828 0.17336,-0.02477 0.17336,-0.02229 0.34672,-0.04696 0.69342,-0.08904 0.69344,-0.07915 0.69342,-0.0742 0.3467,-0.03465 0.34672,-0.03217 0.6934,-0.06186 0.16935,-0.01236 0.16932,-0.01479 0.34269,-0.02477 0.16931,-0.01236 0.16932,-0.0099 0.33866,-0.02229 0.33865,-0.01976 0.3427,-0.01976 0.8466,-0.03713 0.17336,-0.0074 0.16932,-0.0051 0.16934,-0.0074 0.33862,-0.0099 0.16933,-0.0025 0.16933,-0.0051 0.17336,-0.0025 0.16931,-0.0051 0.16934,-0.0025 0.16932,0 0.33863,-0.0051 1.02,0 0.33863,0.0051 0.17336,0.0025 0.33864,0.0051 0.33867,0.0099 0.16932,0.0025 0.16932,0.0051 0.17336,0.0074 0.33865,0.0099 0.6773,0.02969 0.16932,0.0099 0.17335,0.0074 0.67731,0.03956 0.33863,0.02229 0.68133,0.04944 0.18547,0.01484 0.18141,0.01479 0.37089,0.03217 0.73779,0.06926 0.18545,0.01727 0.18142,0.01976 0.37089,0.03956 0.73777,0.08409 0.18144,0.02477 0.18542,0.02229 0.36687,0.04701 0.73779,0.101414 1.47553,0.225085 0.18546,0.02969 0.18141,0.03217 0.37091,0.06187 0.73776,0.133565 1.47152,0.289393 0.18543,0.03713 0.18547,0.03956 0.36686,0.07915 0.73777,0.163249 1.47555,0.351229 0.17336,0.04205 0.1693,0.04453 0.34673,0.08657 0.68536,0.183035 1.37879,0.380908 2.7495,0.845916 0.34672,0.113784 0.34268,0.113779 0.68535,0.234973 1.37878,0.489743 2.7495,1.056159 0.18949,0.0742 0.55635,0.230029 0.74582,0.311656 1.49167,0.645566 2.98333,1.380181 0.18547,0.08905 0.18948,0.09152 0.37089,0.183036 0.74583,0.371015 1.49169,0.764294 2.98332,1.612682 0.18142,0.101413 0.18142,0.103881 0.36687,0.20777 0.73374,0.420486 1.46344,0.858286 2.92691,1.79819 5.85781,3.903089 0.16931,0.11873 0.17337,0.1212 0.33862,0.23992 0.68539,0.48727 1.36266,0.9869 2.73337,2.03317 5.46271,4.30131 11.84466,10.28457 11.06251,10.56901 10.8408,10.99692 11.76401,12.30042 10.97381,11.46193 11.90109,11.95166 11.1109,10.25984 0.16932,0.1484 0.16931,0.14594 0.3427,0.29434 0.6773,0.5862 1.36265,1.15263 2.72532,2.23599 0.16931,0.13851 0.16934,0.13604 0.34267,0.27208 0.67731,0.53674 1.36266,1.05863 2.72531,2.03811 0.18143,0.13605 0.18543,0.13356 0.37091,0.26465 0.73777,0.52685 1.47556,1.02401 2.95509,1.94411 0.3709,0.23251 0.36688,0.23003 0.73776,0.45264 1.47957,0.8756 2.95109,1.63 0.34671,0.17809 0.34269,0.17561 0.68939,0.34629 1.37878,0.66535 0.34671,0.1583 0.34268,0.1583 0.68939,0.30671 1.37879,0.58125 0.3467,0.13852 0.34268,0.13603 0.6894,0.26466 1.37878,0.49717 0.17335,0.0593 0.16933,0.0593 0.34671,0.11378 0.68939,0.22013 1.3788,0.40812 0.18545,0.0519 0.18544,0.0494 0.37493,0.0989 0.74584,0.18798 0.18946,0.0445 0.18546,0.0445 0.37493,0.0841 0.74584,0.16078 0.3709,0.0742 0.37493,0.0692 0.18544,0.0346 0.1895,0.0322 0.3709,0.0643 0.18949,0.0297 0.18543,0.0297 0.37494,0.0544 0.74584,0.10141 0.18547,0.0222 0.18543,0.0197 0.37494,0.042 0.18543,0.0173 0.18949,0.0198 0.37091,0.0322 0.18948,0.0148 0.18545,0.0148 0.18545,0.0124 0.18949,0.0124 0.37089,0.0198 0.18948,0.01 0.3709,0.0148 0.18546,0.005 0.18948,0.005 0.18545,0.005 0.18545,0.003 0.18947,0.003 0.56039,0 0.3709,-0.005 0.18949,-0.005 0.3709,-0.01 0.18949,-0.007 0.18544,-0.01 0.18141,-0.007 0.18546,-0.0124 0.18141,-0.01 0.18546,-0.0124 0.18142,-0.0124 0.18545,-0.0148 0.36687,-0.0322 0.18142,-0.0173 0.18544,-0.0173 0.36688,-0.042 0.18141,-0.0198 0.18144,-0.0223 0.36685,-0.0494 0.18545,-0.0248 0.18142,-0.0272 0.36686,-0.0569 0.18546,-0.0297 0.18142,-0.0322 0.36687,-0.0643 0.18546,-0.0346 0.18141,-0.0371 0.36686,-0.0742 0.73376,-0.16078 0.1814,-0.042 0.18546,-0.0445 0.36686,-0.0915 0.73375,-0.19787 0.18142,-0.0519 0.18543,-0.0519 0.36688,-0.1113 0.73375,-0.2325 0.36282,-0.12368 0.36688,-0.12862 0.73374,-0.2696 1.46747,-0.59858 0.16931,-0.0742 0.17336,-0.0767 0.3427,-0.15335 0.68133,-0.32155 1.37071,-0.69751 0.16934,-0.0915 0.17336,-0.0915 0.33863,-0.19046 0.68536,-0.3908 1.36669,-0.83602 0.17336,-0.10883 0.16932,-0.11131 0.34268,-0.22508 0.68537,-0.46253 1.36668,-0.98196 2.73742,-2.19147 0.18544,-0.1583 0.18544,-0.16078 0.37093,-0.32649 0.7418,-0.6703 1.48359,-1.40986 2.96316,-3.10665 0.18547,-0.20529 0.55634,-0.63073 0.7418,-0.86323 1.4836,-1.80066 2.96722,-3.90804 0.17336,-0.23992 0.17335,-0.2424 0.34671,-0.48974 0.69341,-0.99433 1.38284,-2.06285 2.76965,-4.41014 0.17336,-0.28692 0.52007,-0.8756 0.69341,-1.18725 1.38283,-2.45117 2.76966,-5.20907 0.16931,-0.33392 0.17338,-0.33391 0.33864,-0.67278 0.67729,-1.36286 1.35863,-2.80736 2.71323,-5.92389 0.1693,-0.38586 0.17337,-0.38586 0.33865,-0.77666 0.6773,-1.57311 1.35862,-3.22783 2.71323,-6.78713 0.3709,-0.95475 0.36687,-0.96463 0.73776,-1.94908 1.4715,-4.0045 2.94706,-8.41712 5.89008,-18.53844 0.17334,-0.57384 0.16933,-0.57879 0.34671,-1.16004 0.68537,-2.3473 1.37476,-4.793526 2.74949,-9.985279 5.49901,-21.617875 0.18948,-0.793978 0.19352,-0.798923 0.38299,-1.602788 0.766,-3.240211 1.53602,-6.618925 3.06798,-13.789436 0.19353,-0.885489 0.18946,-0.890442 0.383,-1.785824 0.77002,-3.613698 1.53197,-7.365905 0.19353,-0.932487 0.18948,-0.937436 0.38301,-1.884761 0.77001,-3.804154 0.18947,-0.957223 0.19353,-0.962166 0.38299,-1.934231 0.19351,-0.969588 0.18951,-0.974537 0.19348,-0.977009 0.1895,-0.97948"
     id="path41"
     inkscape:connector-curvature="0" />
  <text
     xml:space="preserve"
     style="font-style:normal;font-weight:normal;font-size:40px;line-height:125%;font-family:sans-serif;letter-spacing:0px;word-spacing:0px;fill:#000000;fill-opacity:1;stroke:none;stroke-width:1px;stroke-linecap:butt;stroke-linejoin:miter;stroke-opacity:1"
     x="550.12396"
     y="225.4738"
     id="text4410"
     sodipodi:linespacing="125%"><tspan
       sodipodi:role="line"
       id="tspan4412"
       x="550.12396"
       y="225.4738"
       style="font-style:italic;font-variant:normal;font-weight:normal;font-stretch:normal;font-size:20px;font-family:'Times New Roman';-inkscape-font-specification:'Times New Roman,  Italic'">+a</tspan></text>
  <text
     xml:space="preserve"
     style="font-style:normal;font-weight:normal;font-size:40px;line-height:125%;font-family:sans-serif;letter-spacing:0px;word-spacing:0px;fill:#000000;fill-opacity:1;stroke:none;stroke-width:1px;stroke-linecap:butt;stroke-linejoin:miter;stroke-opacity:1"
     x="176.28857"
     y="222.62532"
     id="text4410-2"
     sodipodi:linespacing="125%"><tspan
       sodipodi:role="line"
       id="tspan4412-3"
       x="176.28857"
       y="222.62532"
       style="font-style:italic;font-variant:normal;font-weight:normal;font-stretch:normal;font-size:20px;font-family:'Times New Roman';-inkscape-font-specification:'Times New Roman,  Italic'">–a</tspan></text>
  <rect
     style="color:#000000;clip-rule:nonzero;display:inline;overflow:visible;visibility:visible;opacity:1;isolation:auto;mix-blend-mode:normal;color-interpolation:sRGB;color-interpolation-filters:linearRGB;solid-color:#000000;solid-opacity:1;fill:#ffffff;fill-opacity:1;fill-rule:nonzero;stroke:none;stroke-width:3;stroke-linecap:square;stroke-linejoin:miter;stroke-miterlimit:3.25;stroke-dasharray:none;stroke-dashoffset:0;stroke-opacity:1;color-rendering:auto;image-rendering:auto;shape-rendering:auto;text-rendering:auto;enable-background:accumulate"
     id="rect5267"
     width="180.0645"
     height="46"
     x="404.73267"
     y="1.1003907" />
  <text
     xml:space="preserve"
     style="font-style:normal;font-weight:normal;font-size:40px;line-height:125%;font-family:sans-serif;letter-spacing:0px;word-spacing:0px;fill:#000000;fill-opacity:1;stroke:none;stroke-width:1px;stroke-linecap:butt;stroke-linejoin:miter;stroke-opacity:1"
     x="471.26459"
     y="20.632607"
     id="text5206"
     sodipodi:linespacing="125%"><tspan
       sodipodi:role="line"
       id="tspan5208"
       x="471.26459"
       y="20.632607"
       style="font-style:normal;font-variant:normal;font-weight:normal;font-stretch:normal;font-size:17.5px;font-family:Arial;-inkscape-font-specification:Arial"><tspan
   id="tspan4540"
   style="font-style:italic;font-variant:normal;font-weight:normal;font-stretch:normal;font-family:'Times New Roman';-inkscape-font-specification:'Times New Roman,  Italic'">U(x)</tspan>  (joules)</tspan></text>
  <text
     xml:space="preserve"
     style="font-style:normal;font-weight:normal;font-size:40px;line-height:125%;font-family:sans-serif;letter-spacing:0px;word-spacing:0px;fill:#000000;fill-opacity:1;stroke:none;stroke-width:1px;stroke-linecap:butt;stroke-linejoin:miter;stroke-opacity:1"
     x="471.86273"
     y="42.520515"
     id="text5206-0"
     sodipodi:linespacing="125%"><tspan
       sodipodi:role="line"
       id="tspan5208-3"
       x="471.86273"
       y="42.520515"
       style="font-style:normal;font-variant:normal;font-weight:normal;font-stretch:normal;font-size:17.5px;font-family:'Times New Roman';-inkscape-font-specification:'Times New Roman, '"><tspan
         id="tspan4536"
         style="font-style:italic;font-variant:normal;font-weight:normal;font-stretch:normal;font-family:'Times New Roman';-inkscape-font-specification:'Times New Roman,  Italic'">F(x) </tspan><tspan
         id="tspan4538"
         style="font-style:normal;font-variant:normal;font-weight:normal;font-stretch:normal;font-family:Arial;-inkscape-font-specification:Arial"> (newtons)</tspan></tspan></text>
  <path
     style="color:#000000;clip-rule:nonzero;display:inline;overflow:visible;visibility:visible;opacity:1;isolation:auto;mix-blend-mode:normal;color-interpolation:sRGB;color-interpolation-filters:linearRGB;solid-color:#000000;solid-opacity:1;fill:#5c7fb3;fill-opacity:1;fill-rule:nonzero;stroke:#4682b4;stroke-width:3;stroke-linecap:square;stroke-linejoin:miter;stroke-miterlimit:3.25;stroke-dasharray:none;stroke-dashoffset:0;stroke-opacity:1;color-rendering:auto;image-rendering:auto;shape-rendering:auto;text-rendering:auto;enable-background:accumulate"
     d="m 412.17382,14.47172 50,0"
     id="path5228"
     inkscape:connector-curvature="0" />
  <path
     style="fill:none;fill-rule:evenodd;stroke:#ff0000;stroke-width:3;stroke-linecap:butt;stroke-linejoin:miter;stroke-miterlimit:4;stroke-dasharray:none;stroke-opacity:1;marker-end:"
     d="m 412.17382,36.50062 50,0"
     id="path5228-0"
     inkscape:connector-curvature="0" />
  <text
     xml:space="preserve"
     style="font-style:normal;font-weight:normal;font-size:40px;line-height:125%;font-family:sans-serif;letter-spacing:0px;word-spacing:0px;fill:#000000;fill-opacity:1;stroke:none;stroke-width:1px;stroke-linecap:butt;stroke-linejoin:miter;stroke-opacity:1"
     x="731.07623"
     y="198.80817"
     id="text5206-0-1"
     sodipodi:linespacing="125%"><tspan
       sodipodi:role="line"
       id="tspan5208-3-9"
       x="731.07623"
       y="198.80817"
       style="font-style:italic;font-variant:normal;font-weight:normal;font-stretch:normal;font-size:20px;font-family:'Times New Roman';-inkscape-font-specification:'Times New Roman, Italic'"> x</tspan></text>
</svg>
