<?xml version="1.0" encoding="utf-8"?>
<!-- Generator: Adobe Illustrator 18.1.1, SVG Export Plug-In . SVG Version: 6.00 Build 0)  -->
<svg version="1.1" id="Layer_1" xmlns="http://www.w3.org/2000/svg" xmlns:xlink="http://www.w3.org/1999/xlink" x="0px" y="0px"
	 viewBox="82 275 449 237" enable-background="new 82 275 449 237" xml:space="preserve">
<line fill="none" stroke="#000000" stroke-width="3" stroke-miterlimit="10" stroke-dasharray="8,5" x1="228.6" y1="426.6" x2="356.7" y2="427.2"/>
<line fill="none" stroke="#000000" stroke-width="3" stroke-miterlimit="10" x1="229.8" y1="426.6" x2="229.8" y2="468.7"/>
<line fill="none" stroke="#000000" stroke-width="3" stroke-miterlimit="10" x1="228.6" y1="468.7" x2="356.7" y2="468.7"/>
<line fill="none" stroke="#000000" stroke-width="3" stroke-miterlimit="10" x1="355.5" y1="468.7" x2="355.5" y2="427.2"/>
<circle fill="#FFFFFF" stroke="#000000" stroke-width="3" stroke-miterlimit="10" cx="258.2" cy="477.6" r="8.9"/>
<circle fill="#FFFFFF" stroke="#000000" stroke-width="3" stroke-miterlimit="10" cx="322.9" cy="477.6" r="8.9"/>
<line fill="none" stroke="#000000" stroke-width="5" stroke-miterlimit="10" x1="115.8" y1="490.1" x2="503.3" y2="490.7"/>
<ellipse fill="#FFFFFF" stroke="#000000" stroke-width="2" stroke-miterlimit="10" cx="296.2" cy="296.7" rx="3.6" ry="8.9"/>
<ellipse fill="#FFFFFF" stroke="#000000" stroke-width="2" stroke-miterlimit="10" cx="296.2" cy="321" rx="3.6" ry="8.9"/>
<ellipse fill="#FFFFFF" stroke="#000000" stroke-width="2" stroke-miterlimit="10" cx="296.2" cy="351.2" rx="3.6" ry="8.9"/>
<ellipse fill="#FFFFFF" stroke="#000000" stroke-width="2" stroke-miterlimit="10" cx="296.2" cy="377.4" rx="3.6" ry="8.9"/>
<ellipse fill="#FFFFFF" stroke="#000000" stroke-width="2" stroke-miterlimit="10" cx="296.2" cy="402.3" rx="3.6" ry="8.9"/>
<ellipse fill="#FFFFFF" stroke="#000000" stroke-width="2" stroke-miterlimit="10" cx="296.2" cy="423.6" rx="3.6" ry="8.9"/>
<ellipse fill="#FFFFFF" stroke="#000000" stroke-width="2" stroke-miterlimit="10" cx="240.4" cy="448" rx="8.9" ry="3.6"/>
<ellipse fill="#FFFFFF" stroke="#000000" stroke-width="2" stroke-miterlimit="10" cx="249.3" cy="455.1" rx="8.9" ry="3.6"/>
<ellipse fill="#FFFFFF" stroke="#000000" stroke-width="2" stroke-miterlimit="10" cx="267.1" cy="451.5" rx="8.9" ry="3.6"/>
<ellipse fill="#FFFFFF" stroke="#000000" stroke-width="2" stroke-miterlimit="10" cx="284.9" cy="458.6" rx="8.9" ry="3.6"/>
<ellipse fill="#FFFFFF" stroke="#000000" stroke-width="2" stroke-miterlimit="10" cx="299.8" cy="451.5" rx="8.9" ry="3.6"/>
<ellipse fill="#FFFFFF" stroke="#000000" stroke-width="2" stroke-miterlimit="10" cx="318.5" cy="458.6" rx="8.9" ry="3.6"/>
<ellipse fill="#FFFFFF" stroke="#000000" stroke-width="2" stroke-miterlimit="10" cx="337.2" cy="448" rx="8.9" ry="3.6"/>
<ellipse fill="#FFFFFF" stroke="#000000" stroke-width="2" stroke-miterlimit="10" cx="343.1" cy="458.6" rx="8.9" ry="3.6"/>
<g>
	<line fill="none" x1="381.7" y1="443.2" x2="438" y2="443.2"/>
	<g>
		<line fill="none" stroke="#000000" stroke-width="1.5" stroke-miterlimit="10" x1="381.7" y1="443.2" x2="423.5" y2="443.2"/>
		<g>
			<path d="M420.3,443.2l-3.9-6.4l0.2-0.1l10.4,4.2c3.7,0.8,7.2,1.7,10.9,2.4c-3.7,0.8-7.2,1.7-10.9,2.4l-10.4,4.2l-0.2-0.1
				L420.3,443.2z"/>
		</g>
	</g>
</g>
<text transform="matrix(1 0 0 1 380.4657 361.9248)" font-family="'TimesNewRomanPSMT'" font-size="21.3607">rain</text>
<g>
	<line fill="none" x1="386.4" y1="370.8" x2="352" y2="391"/>
	<g>
		<line fill="none" stroke="#000000" stroke-width="1.5" stroke-miterlimit="10" x1="386.4" y1="370.8" x2="364.4" y2="383.6"/>
		<g>
			<path d="M367.3,382.1l6.6,3.6l-0.1,0.2l-11.2,1.7c-3.6,1.2-7.1,2.3-10.7,3.4c2.7-2.5,5.5-5.1,8.2-7.6l6.9-8.9h0.2V382.1z"/>
		</g>
	</g>
</g>
<text transform="matrix(1 0 0 1 399.1562 432.5333)" fill="#010101" font-family="'TimesNewRomanPS-ItalicMT'" font-size="28.4809">v</text>
<text transform="matrix(1 0 0 1 102.7773 402.2715)" font-family="'TimesNewRomanPSMT'" font-size="21.3607">frictionless</text>
<g>
	<line fill="none" x1="139.6" y1="414.7" x2="165.1" y2="480.6"/>
	<g>
		<line fill="none" stroke="#000000" stroke-width="1.5" stroke-miterlimit="10" x1="139.6" y1="414.7" x2="159.9" y2="467.1"/>
		<g>
			<path d="M158.7,464.1l4.6-5.9l0.2,0.1l-0.1,11.3c0.6,3.7,1.2,7.4,1.7,11c-2-3.1-4.2-6.2-6.2-9.4l-7.6-8.3v-0.2L158.7,464.1z"/>
		</g>
	</g>
</g>
<ellipse fill="#FFFFFF" stroke="#000000" stroke-width="2" stroke-miterlimit="10" cx="255.9" cy="353" rx="3.6" ry="8.9"/>
<ellipse fill="#FFFFFF" stroke="#000000" stroke-width="2" stroke-miterlimit="10" cx="255.9" cy="377.4" rx="3.6" ry="8.9"/>
<ellipse fill="#FFFFFF" stroke="#000000" stroke-width="2" stroke-miterlimit="10" cx="255.9" cy="407.6" rx="3.6" ry="8.9"/>
<ellipse fill="#FFFFFF" stroke="#000000" stroke-width="2" stroke-miterlimit="10" cx="255.9" cy="433.7" rx="3.6" ry="8.9"/>
<ellipse fill="#FFFFFF" stroke="#000000" stroke-width="2" stroke-miterlimit="10" cx="334.2" cy="325.1" rx="3.6" ry="8.9"/>
<ellipse fill="#FFFFFF" stroke="#000000" stroke-width="2" stroke-miterlimit="10" cx="334.2" cy="355.4" rx="3.6" ry="8.9"/>
<ellipse fill="#FFFFFF" stroke="#000000" stroke-width="2" stroke-miterlimit="10" cx="334.2" cy="381.5" rx="3.6" ry="8.9"/>
<ellipse fill="#FFFFFF" stroke="#000000" stroke-width="2" stroke-miterlimit="10" cx="334.2" cy="406.4" rx="3.6" ry="8.9"/>
<ellipse fill="#FFFFFF" stroke="#000000" stroke-width="2" stroke-miterlimit="10" cx="334.2" cy="427.8" rx="3.6" ry="8.9"/>
</svg>
