<?xml version="1.0" encoding="UTF-8" standalone="no"?>
<svg
   xmlns:ns0="http://www.iki.fi/pav/software/textext/"
   xmlns:dc="http://purl.org/dc/elements/1.1/"
   xmlns:cc="http://creativecommons.org/ns#"
   xmlns:rdf="http://www.w3.org/1999/02/22-rdf-syntax-ns#"
   xmlns:svg="http://www.w3.org/2000/svg"
   xmlns="http://www.w3.org/2000/svg"
   xmlns:xlink="http://www.w3.org/1999/xlink"
   xmlns:sodipodi="http://sodipodi.sourceforge.net/DTD/sodipodi-0.dtd"
   xmlns:inkscape="http://www.inkscape.org/namespaces/inkscape"
   id="si-canvas"
   touch-action="none"
   width="750"
   height="420"
   style="cursor: crosshair;"
   version="1.1"
   inkscape:version="0.91 r13725"
   sodipodi:docname="elevator_start_stop_background.svg">
  <sodipodi:namedview
     pagecolor="#ffffff"
     bordercolor="#666666"
     borderopacity="1"
     objecttolerance="10"
     gridtolerance="10"
     guidetolerance="10"
     inkscape:pageopacity="0"
     inkscape:pageshadow="2"
     inkscape:window-width="2340"
     inkscape:window-height="1204"
     id="namedview151"
     showgrid="false"
     inkscape:zoom="1.1690832"
     inkscape:cx="375"
     inkscape:cy="38.925779"
     inkscape:window-x="0"
     inkscape:window-y="1"
     inkscape:window-maximized="0"
     inkscape:current-layer="si-canvas" />
  <metadata
     id="metadata155">
    <rdf:RDF>
      <cc:Work
         rdf:about="">
        <dc:format>image/svg+xml</dc:format>
        <dc:type
           rdf:resource="http://purl.org/dc/dcmitype/StillImage" />
      </cc:Work>
    </rdf:RDF>
  </metadata>
  <defs
     id="defs153">
    <marker
       inkscape:isstock="true"
       style="overflow:visible;"
       id="marker4654"
       refX="0.0"
       refY="0.0"
       orient="auto"
       inkscape:stockid="Arrow2Lend">
      <path
         transform="scale(1.1) rotate(180) translate(1,0)"
         d="M 8.7185878,4.0337352 L -2.2072895,0.016013256 L 8.7185884,-4.0017078 C 6.9730900,-1.6296469 6.9831476,1.6157441 8.7185878,4.0337352 z "
         style="fill-rule:evenodd;stroke-width:0.625;stroke-linejoin:round;stroke:#333333;stroke-opacity:1;fill:#000000;fill-opacity:1"
         id="path4656" />
    </marker>
    <marker
       inkscape:stockid="Arrow2Lend"
       orient="auto"
       refY="0.0"
       refX="0.0"
       id="Arrow2Lend"
       style="overflow:visible;"
       inkscape:isstock="true"
       inkscape:collect="always">
      <path
         id="path4399"
         style="fill-rule:evenodd;stroke-width:0.625;stroke-linejoin:round;stroke:#333333;stroke-opacity:1;fill:#000000;fill-opacity:1"
         d="M 8.7185878,4.0337352 L -2.2072895,0.016013256 L 8.7185884,-4.0017078 C 6.9730900,-1.6296469 6.9831476,1.6157441 8.7185878,4.0337352 z "
         transform="scale(1.1) rotate(180) translate(1,0)" />
    </marker>
  </defs>
  <line
     id="line7"
     class="xminor"
     style="stroke:#f6f6f6;stroke-width:1px;shape-rendering:crispEdges"
     y2="0"
     y1="420"
     x2="0"
     x1="0" />
  <line
     id="line9"
     class="xminor"
     style="stroke:#f6f6f6;stroke-width:1px;shape-rendering:crispEdges"
     y2="0"
     y1="420"
     x2="31.25"
     x1="31.25" />
  <line
     id="line11"
     class="xminor"
     style="stroke:#f6f6f6;stroke-width:1px;shape-rendering:crispEdges"
     y2="0"
     y1="420"
     x2="62.5"
     x1="62.5" />
  <line
     id="line13"
     class="xminor"
     style="stroke:#f6f6f6;stroke-width:1px;shape-rendering:crispEdges"
     y2="0"
     y1="420"
     x2="93.75"
     x1="93.75" />
  <line
     id="line15"
     class="xminor"
     style="stroke:#f6f6f6;stroke-width:1px;shape-rendering:crispEdges"
     y2="0"
     y1="420"
     x2="125"
     x1="125" />
  <line
     id="line17"
     class="xminor"
     style="stroke:#f6f6f6;stroke-width:1px;shape-rendering:crispEdges"
     y2="0"
     y1="420"
     x2="156.25"
     x1="156.25" />
  <line
     id="line19"
     class="xminor"
     style="stroke:#f6f6f6;stroke-width:1px;shape-rendering:crispEdges"
     y2="0"
     y1="420"
     x2="218.75"
     x1="218.75" />
  <line
     id="line21"
     class="xminor"
     style="stroke:#f6f6f6;stroke-width:1px;shape-rendering:crispEdges"
     y2="0"
     y1="420"
     x2="250"
     x1="250" />
  <line
     id="line23"
     class="xminor"
     style="stroke:#f6f6f6;stroke-width:1px;shape-rendering:crispEdges"
     y2="0"
     y1="420"
     x2="281.25"
     x1="281.25" />
  <line
     id="line25"
     class="xminor"
     style="stroke:#f6f6f6;stroke-width:1px;shape-rendering:crispEdges"
     y2="0"
     y1="420"
     x2="343.75"
     x1="343.75" />
  <line
     id="line27"
     class="xminor"
     style="stroke:#f6f6f6;stroke-width:1px;shape-rendering:crispEdges"
     y2="0"
     y1="420"
     x2="375"
     x1="375" />
  <line
     id="line29"
     class="xminor"
     style="stroke:#f6f6f6;stroke-width:1px;shape-rendering:crispEdges"
     y2="0"
     y1="420"
     x2="406.25"
     x1="406.25" />
  <line
     id="line31"
     class="xminor"
     style="stroke:#f6f6f6;stroke-width:1px;shape-rendering:crispEdges"
     y2="0"
     y1="420"
     x2="468.75"
     x1="468.75" />
  <line
     id="line33"
     class="xminor"
     style="stroke:#f6f6f6;stroke-width:1px;shape-rendering:crispEdges"
     y2="0"
     y1="420"
     x2="500"
     x1="500" />
  <line
     id="line35"
     class="xminor"
     style="stroke:#f6f6f6;stroke-width:1px;shape-rendering:crispEdges"
     y2="0"
     y1="420"
     x2="531.25"
     x1="531.25" />
  <line
     id="line37"
     class="xminor"
     style="stroke:#f6f6f6;stroke-width:1px;shape-rendering:crispEdges"
     y2="0"
     y1="420"
     x2="593.75"
     x1="593.75" />
  <line
     id="line39"
     class="xminor"
     style="stroke:#f6f6f6;stroke-width:1px;shape-rendering:crispEdges"
     y2="0"
     y1="420"
     x2="625"
     x1="625" />
  <line
     id="line41"
     class="xminor"
     style="stroke:#f6f6f6;stroke-width:1px;shape-rendering:crispEdges"
     y2="0"
     y1="420"
     x2="656.25"
     x1="656.25" />
  <line
     id="line43"
     class="xminor"
     style="stroke:#f6f6f6;stroke-width:1px;shape-rendering:crispEdges"
     y2="0"
     y1="420"
     x2="718.75"
     x1="718.75" />
  <line
     id="line45"
     class="xminor"
     style="stroke:#f6f6f6;stroke-width:1px;shape-rendering:crispEdges"
     y2="0"
     y1="420"
     x2="750"
     x1="750" />
  <line
     id="line47"
     class="yminor"
     style="stroke:#f6f6f6;stroke-width:1px;shape-rendering:crispEdges"
     y2="420"
     y1="420"
     x2="750"
     x1="0" />
  <line
     id="line49"
     class="yminor"
     style="stroke:#f6f6f6;stroke-width:1px;shape-rendering:crispEdges"
     y2="400.90909"
     y1="400.90909"
     x2="750"
     x1="0" />
  <line
     id="line51"
     class="yminor"
     style="stroke:#f6f6f6;stroke-width:1px;shape-rendering:crispEdges"
     y2="381.81818"
     y1="381.81818"
     x2="750"
     x1="0" />
  <line
     id="line53"
     class="yminor"
     style="stroke:#f6f6f6;stroke-width:1px;shape-rendering:crispEdges"
     y2="362.72726"
     y1="362.72726"
     x2="750"
     x1="0" />
  <line
     id="line55"
     class="yminor"
     style="stroke:#f6f6f6;stroke-width:1px;shape-rendering:crispEdges"
     y2="343.63635"
     y1="343.63635"
     x2="750"
     x1="0" />
  <line
     id="line57"
     class="yminor"
     style="stroke:#f6f6f6;stroke-width:1px;shape-rendering:crispEdges"
     y2="324.54544"
     y1="324.54544"
     x2="750"
     x1="0" />
  <line
     id="line59"
     class="yminor"
     style="stroke:#f6f6f6;stroke-width:1px;shape-rendering:crispEdges"
     y2="286.36365"
     y1="286.36365"
     x2="750"
     x1="0" />
  <line
     id="line61"
     class="yminor"
     style="stroke:#f6f6f6;stroke-width:1px;shape-rendering:crispEdges"
     y2="267.27274"
     y1="267.27274"
     x2="750"
     x1="0" />
  <line
     id="line63"
     class="yminor"
     style="stroke:#f6f6f6;stroke-width:1px;shape-rendering:crispEdges"
     y2="248.18182"
     y1="248.18182"
     x2="750"
     x1="0" />
  <line
     id="line65"
     class="yminor"
     style="stroke:#f6f6f6;stroke-width:1px;shape-rendering:crispEdges"
     y2="210"
     y1="210"
     x2="750"
     x1="0" />
  <line
     id="line67"
     class="yminor"
     style="stroke:#f6f6f6;stroke-width:1px;shape-rendering:crispEdges"
     y2="190.90909"
     y1="190.90909"
     x2="750"
     x1="0" />
  <line
     id="line69"
     class="yminor"
     style="stroke:#f6f6f6;stroke-width:1px;shape-rendering:crispEdges"
     y2="171.81818"
     y1="171.81818"
     x2="750"
     x1="0" />
  <line
     id="line71"
     class="yminor"
     style="stroke:#f6f6f6;stroke-width:1px;shape-rendering:crispEdges"
     y2="133.63637"
     y1="133.63637"
     x2="750"
     x1="0" />
  <line
     id="line73"
     class="yminor"
     style="stroke:#f6f6f6;stroke-width:1px;shape-rendering:crispEdges"
     y2="114.54546"
     y1="114.54546"
     x2="750"
     x1="0" />
  <line
     id="line75"
     class="yminor"
     style="stroke:#f6f6f6;stroke-width:1px;shape-rendering:crispEdges"
     y2="95.454544"
     y1="95.454544"
     x2="750"
     x1="0" />
  <line
     id="line77"
     class="yminor"
     style="stroke:#f6f6f6;stroke-width:1px;shape-rendering:crispEdges"
     y2="57.272728"
     y1="57.272728"
     x2="750"
     x1="0" />
  <line
     id="line79"
     class="yminor"
     style="stroke:#f6f6f6;stroke-width:1px;shape-rendering:crispEdges"
     y2="38.18182"
     y1="38.18182"
     x2="750"
     x1="0" />
  <line
     id="line81"
     class="yminor"
     style="stroke:#f6f6f6;stroke-width:1px;shape-rendering:crispEdges"
     y2="19.09091"
     y1="19.09091"
     x2="750"
     x1="0" />
  <line
     x1="187.5"
     x2="187.5"
     y1="420"
     y2="0"
     style="stroke:#f0f0f0;stroke-width:2px;shape-rendering:crispEdges"
     class="xmajor"
     id="line85" />
  <text
     x="187.5"
     y="464.81818"
     style="font-size:14px;text-anchor:middle;fill:#333333"
     class="ticLabel"
     id="text87">2</text>
  <line
     x1="312.5"
     x2="312.5"
     y1="420"
     y2="0"
     style="stroke:#f0f0f0;stroke-width:2px;shape-rendering:crispEdges"
     class="xmajor"
     id="line91" />
  <text
     x="312.5"
     y="464.81818"
     style="font-size:14px;text-anchor:middle;fill:#333333"
     class="ticLabel"
     id="text93">4</text>
  <line
     x1="437.5"
     x2="437.5"
     y1="420"
     y2="0"
     style="stroke:#f0f0f0;stroke-width:2px;shape-rendering:crispEdges"
     class="xmajor"
     id="line97" />
  <text
     x="437.5"
     y="464.81818"
     style="font-size:14px;text-anchor:middle;fill:#333333"
     class="ticLabel"
     id="text99">6</text>
  <line
     x1="562.5"
     x2="562.5"
     y1="420"
     y2="0"
     style="stroke:#f0f0f0;stroke-width:2px;shape-rendering:crispEdges"
     class="xmajor"
     id="line103" />
  <text
     x="562.5"
     y="464.81818"
     style="font-size:14px;text-anchor:middle;fill:#333333"
     class="ticLabel"
     id="text105">8</text>
  <line
     x1="687.5"
     x2="687.5"
     y1="420"
     y2="0"
     style="stroke:#f0f0f0;stroke-width:2px;shape-rendering:crispEdges"
     class="xmajor"
     id="line109" />
  <text
     x="687.5"
     y="464.81818"
     style="font-size:14px;text-anchor:middle;fill:#333333"
     class="ticLabel"
     id="text111">10</text>
  <line
     x1="0"
     x2="750"
     y1="305.45456"
     y2="305.45456"
     style="stroke:#f0f0f0;stroke-width:2px;shape-rendering:crispEdges"
     class="ymajor"
     id="line115" />
  <text
     x="-51.5"
     y="310.45456"
     style="font-size:14px;text-anchor:end;fill:#333333"
     class="ticLabel"
     id="text117">2</text>
  <line
     x1="0"
     x2="750"
     y1="229.09091"
     y2="229.09091"
     style="stroke:#f0f0f0;stroke-width:2px;shape-rendering:crispEdges"
     class="ymajor"
     id="line121" />
  <text
     x="-51.5"
     y="234.09091"
     style="font-size:14px;text-anchor:end;fill:#333333"
     class="ticLabel"
     id="text123">4</text>
  <line
     x1="0"
     x2="750"
     y1="152.72728"
     y2="152.72728"
     style="stroke:#f0f0f0;stroke-width:2px;shape-rendering:crispEdges"
     class="ymajor"
     id="line127" />
  <text
     x="-51.5"
     y="157.72728"
     style="font-size:14px;text-anchor:end;fill:#333333"
     class="ticLabel"
     id="text129">6</text>
  <line
     x1="0"
     x2="750"
     y1="76.36364"
     y2="76.36364"
     style="stroke:#f0f0f0;stroke-width:2px;shape-rendering:crispEdges"
     class="ymajor"
     id="line133" />
  <text
     x="-51.5"
     y="81.36364"
     style="font-size:14px;text-anchor:end;fill:#333333"
     class="ticLabel"
     id="text135">8</text>
  <line
     x1="0"
     x2="750"
     y1="0"
     y2="0"
     style="stroke:#f0f0f0;stroke-width:2px;shape-rendering:crispEdges"
     class="ymajor"
     id="line139" />
  <text
     x="-51.5"
     y="5"
     style="font-size:14px;text-anchor:end;fill:#333333"
     class="ticLabel"
     id="text141">10</text>
  <text
     id="text143"
     class="ticLabel"
     style="font-size:14px;text-anchor:end;fill:#333333"
     y="464.81818"
     x="58.5">0</text>
  <line
     id="line145"
     class="xaxis"
     style="stroke:#333333;stroke-width:1px;shape-rendering:crispEdges;marker-end:url(#Arrow2Lend)"
     y2="381.81818"
     y1="381.81818"
     x2="750"
     x1="0" />
  <line
     id="line147"
     class="yaxis"
     style="stroke:#333333;stroke-width:1px;shape-rendering:crispEdges;marker-end:url(#marker4654)"
     y2="0"
     y1="420"
     x2="62.5"
     x1="62.5" />
  <g
     id="g149" />
  <g
     transform="matrix(3,0,0,3,-594.48292,-371.23106)"
     ns0:text="$y(t)$"
     ns0:preamble=""
     id="g4752">
    <defs
       id="defs4754">
      <g
         id="g4756">
        <symbol
           style="overflow:visible"
           overflow="visible"
           id="textext-123974c7-0">
          <path
             inkscape:connector-curvature="0"
             style="stroke:none"
             d=""
             id="path4759" />
        </symbol>
        <symbol
           style="overflow:visible"
           overflow="visible"
           id="textext-123974c7-1">
          <path
             inkscape:connector-curvature="0"
             style="stroke:none"
             d="m 4.84375,-3.796875 c 0.046875,-0.140625 0.046875,-0.15625 0.046875,-0.234375 0,-0.171875 -0.140625,-0.265625 -0.296875,-0.265625 -0.09375,0 -0.25,0.0625 -0.34375,0.203125 -0.015625,0.0625 -0.109375,0.359375 -0.140625,0.546875 -0.078125,0.25 -0.140625,0.53125 -0.203125,0.796875 l -0.453125,1.796875 c -0.03125,0.140625 -0.46875,0.84375 -1.125,0.84375 -0.5,0 -0.609375,-0.4375 -0.609375,-0.8125 C 1.71875,-1.375 1.890625,-2 2.21875,-2.875 2.375,-3.28125 2.421875,-3.390625 2.421875,-3.59375 c 0,-0.4375 -0.3125,-0.8125 -0.8125,-0.8125 -0.953125,0 -1.3125,1.453125 -1.3125,1.53125 0,0.109375 0.09375,0.109375 0.109375,0.109375 0.109375,0 0.109375,-0.03125 0.15625,-0.1875 0.28125,-0.9375 0.671875,-1.234375 1.015625,-1.234375 0.078125,0 0.25,0 0.25,0.3125 0,0.25 -0.109375,0.515625 -0.171875,0.703125 -0.40625,1.0625 -0.578125,1.625 -0.578125,2.09375 0,0.890625 0.625,1.1875 1.21875,1.1875 0.390625,0 0.71875,-0.171875 1,-0.453125 -0.125,0.515625 -0.25,1.015625 -0.640625,1.546875 -0.265625,0.328125 -0.640625,0.625 -1.09375,0.625 -0.140625,0 -0.59375,-0.03125 -0.765625,-0.421875 0.15625,0 0.296875,0 0.421875,-0.125 C 1.328125,1.203125 1.421875,1.0625 1.421875,0.875 1.421875,0.5625 1.15625,0.53125 1.0625,0.53125 0.828125,0.53125 0.5,0.6875 0.5,1.171875 c 0,0.5 0.4375,0.875 1.0625,0.875 1.015625,0 2.046875,-0.90625 2.328125,-2.03125 z m 0,0"
             id="path4762" />
        </symbol>
        <symbol
           style="overflow:visible"
           overflow="visible"
           id="textext-123974c7-2">
          <path
             inkscape:connector-curvature="0"
             style="stroke:none"
             d="m 2.046875,-3.984375 0.9375,0 c 0.203125,0 0.3125,0 0.3125,-0.203125 0,-0.109375 -0.109375,-0.109375 -0.28125,-0.109375 l -0.875,0 C 2.5,-5.71875 2.546875,-5.90625 2.546875,-5.96875 c 0,-0.171875 -0.125,-0.265625 -0.296875,-0.265625 -0.03125,0 -0.3125,0 -0.390625,0.359375 l -0.390625,1.578125 -0.9375,0 c -0.203125,0 -0.296875,0 -0.296875,0.1875 0,0.125 0.078125,0.125 0.28125,0.125 l 0.875,0 C 0.671875,-1.15625 0.625,-0.984375 0.625,-0.8125 0.625,-0.265625 1,0.109375 1.546875,0.109375 2.5625,0.109375 3.125,-1.34375 3.125,-1.421875 3.125,-1.53125 3.046875,-1.53125 3.015625,-1.53125 2.921875,-1.53125 2.90625,-1.5 2.859375,-1.390625 2.4375,-0.34375 1.90625,-0.109375 1.5625,-0.109375 c -0.203125,0 -0.3125,-0.125 -0.3125,-0.453125 0,-0.25 0.03125,-0.3125 0.0625,-0.484375 z m 0,0"
             id="path4765" />
        </symbol>
        <symbol
           style="overflow:visible"
           overflow="visible"
           id="textext-123974c7-3">
          <path
             inkscape:connector-curvature="0"
             style="stroke:none"
             d=""
             id="path4768" />
        </symbol>
        <symbol
           style="overflow:visible"
           overflow="visible"
           id="textext-123974c7-4">
          <path
             inkscape:connector-curvature="0"
             style="stroke:none"
             d="m 3.296875,2.390625 c 0,-0.03125 0,-0.046875 -0.171875,-0.21875 C 1.890625,0.921875 1.5625,-0.96875 1.5625,-2.5 c 0,-1.734375 0.375,-3.46875 1.609375,-4.703125 0.125,-0.125 0.125,-0.140625 0.125,-0.171875 0,-0.078125 -0.03125,-0.109375 -0.09375,-0.109375 -0.109375,0 -1,0.6875 -1.59375,1.953125 -0.5,1.09375 -0.625,2.203125 -0.625,3.03125 0,0.78125 0.109375,1.984375 0.65625,3.125 C 2.25,1.84375 3.09375,2.5 3.203125,2.5 c 0.0625,0 0.09375,-0.03125 0.09375,-0.109375 z m 0,0"
             id="path4771" />
        </symbol>
        <symbol
           style="overflow:visible"
           overflow="visible"
           id="textext-123974c7-5">
          <path
             inkscape:connector-curvature="0"
             style="stroke:none"
             d="m 2.875,-2.5 c 0,-0.765625 -0.109375,-1.96875 -0.65625,-3.109375 -0.59375,-1.21875 -1.453125,-1.875 -1.546875,-1.875 -0.0625,0 -0.109375,0.046875 -0.109375,0.109375 0,0.03125 0,0.046875 0.1875,0.234375 0.984375,0.984375 1.546875,2.5625 1.546875,4.640625 0,1.71875 -0.359375,3.46875 -1.59375,4.71875 C 0.5625,2.34375 0.5625,2.359375 0.5625,2.390625 0.5625,2.453125 0.609375,2.5 0.671875,2.5 0.765625,2.5 1.671875,1.8125 2.25,0.546875 2.765625,-0.546875 2.875,-1.65625 2.875,-2.5 Z m 0,0"
             id="path4774" />
        </symbol>
      </g>
    </defs>
    <g
       id="textext-123974c7-6">
      <g
         style="fill:#000000;fill-opacity:1"
         id="g4777">
        <use
           height="100%"
           width="100%"
           xlink:href="#textext-123974c7-1"
           x="223.43201"
           y="134.765"
           id="use4779" />
      </g>
      <g
         style="fill:#000000;fill-opacity:1"
         id="g4781">
        <use
           height="100%"
           width="100%"
           xlink:href="#textext-123974c7-4"
           x="228.674"
           y="134.765"
           id="use4783" />
      </g>
      <g
         style="fill:#000000;fill-opacity:1"
         id="g4785">
        <use
           height="100%"
           width="100%"
           xlink:href="#textext-123974c7-2"
           x="232.548"
           y="134.765"
           id="use4787" />
      </g>
      <g
         style="fill:#000000;fill-opacity:1"
         id="g4789">
        <use
           height="100%"
           width="100%"
           xlink:href="#textext-123974c7-5"
           x="236.146"
           y="134.765"
           id="use4791" />
      </g>
    </g>
  </g>
  <g
     id="g5063"
     transform="matrix(3,0,0,3,60.3125,-29.851444)"
     ns0:preamble=""
     ns0:text="$t$">
    <defs
       id="defs5065">
      <g
         id="g5067">
        <symbol
           id="textext-ba034657-0"
           overflow="visible"
           style="overflow:visible">
          <path
             id="path5070"
             d=""
             style="stroke:none"
             inkscape:connector-curvature="0" />
        </symbol>
        <symbol
           id="textext-ba034657-1"
           overflow="visible"
           style="overflow:visible">
          <path
             id="path5073"
             d="m 2.046875,-3.984375 0.9375,0 c 0.203125,0 0.3125,0 0.3125,-0.203125 0,-0.109375 -0.109375,-0.109375 -0.28125,-0.109375 l -0.875,0 C 2.5,-5.71875 2.546875,-5.90625 2.546875,-5.96875 c 0,-0.171875 -0.125,-0.265625 -0.296875,-0.265625 -0.03125,0 -0.3125,0 -0.390625,0.359375 l -0.390625,1.578125 -0.9375,0 c -0.203125,0 -0.296875,0 -0.296875,0.1875 0,0.125 0.078125,0.125 0.28125,0.125 l 0.875,0 C 0.671875,-1.15625 0.625,-0.984375 0.625,-0.8125 0.625,-0.265625 1,0.109375 1.546875,0.109375 2.5625,0.109375 3.125,-1.34375 3.125,-1.421875 3.125,-1.53125 3.046875,-1.53125 3.015625,-1.53125 2.921875,-1.53125 2.90625,-1.5 2.859375,-1.390625 2.4375,-0.34375 1.90625,-0.109375 1.5625,-0.109375 c -0.203125,0 -0.3125,-0.125 -0.3125,-0.453125 0,-0.25 0.03125,-0.3125 0.0625,-0.484375 z m 0,0"
             style="stroke:none"
             inkscape:connector-curvature="0" />
        </symbol>
      </g>
    </defs>
    <g
       id="textext-ba034657-2">
      <g
         id="g5076"
         style="fill:#000000;fill-opacity:1">
        <use
           id="use5078"
           y="134.765"
           x="223.43201"
           xlink:href="#textext-ba034657-1"
           width="100%"
           height="100%" />
      </g>
    </g>
  </g>
  <path
     style="clip-rule:nonzero;fill:none;stroke:#803300;stroke-width:3;stroke-linecap:square;stroke-linejoin:miter;stroke-miterlimit:3.25;stroke-opacity:1;stroke-dasharray:none"
     d="m 65.133942,381.97573 0.237312,0 0.120122,-0.003 0.237318,0 0.120122,-0.003 0.237311,0 0.240251,-0.006 0.117189,0 0.240251,-0.006 0.117189,-0.003 0.240244,-0.006 0.117196,-0.003 0.120115,-0.003 0.237319,-0.009 0.120128,-0.003 0.120116,-0.006 0.237318,-0.009 0.120129,-0.003 0.117189,-0.006 0.240244,-0.0119 0.474629,-0.0237 0.240244,-0.0119 0.237318,-0.0148 0.477562,-0.0297 0.117196,-0.008 0.120116,-0.006 0.24025,-0.0178 0.474637,-0.0355 0.120122,-0.0119 0.120114,-0.009 0.237326,-0.0207 0.477554,-0.0415 0.952192,-0.0949 0.128912,-0.0119 0.386738,-0.0445 0.518569,-0.0593 1.0313,-0.13049 0.128919,-0.0179 0.131838,-0.0178 0.257832,-0.0355 0.515643,-0.0742 1.034233,-0.15719 0.515643,-0.0831 0.518575,-0.0889 1.0313,-0.18684 2.068457,-0.41226 0.480489,-0.10679 0.483427,-0.10676 0.963908,-0.22245 1.930754,-0.48345 0.120122,-0.0326 0.123054,-0.0296 0.240244,-0.0653 0.483421,-0.13048 0.963914,-0.2699 1.930747,-0.57244 0.11719,-0.0386 0.117189,-0.0355 0.237326,-0.0741 0.474629,-0.15126 0.9434,-0.30846 1.892668,-0.64658 3.785334,-1.42067 0.128905,-0.0504 0.125987,-0.0534 0.257825,-0.10082 0.512725,-0.20761 1.025427,-0.4271 2.053801,-0.88384 4.10468,-1.91005 7.66149,-4.03367 8.30313,-5.02428 8.15076,-5.54332 7.60582,-5.67382 8.24452,-6.65258 7.69664,-6.63478 7.54723,-6.86611 8.18884,-7.80335 7.63806,-7.57202 8.28261,-8.47662 8.13025,-8.54484 7.57945,-8.12367 8.22401,-8.93634 7.67614,-8.41136 8.31776,-9.14397 8.16542,-8.95709 7.61754,-8.2957 8.25916,-8.87999 7.7113,-8.13851 7.55894,-7.79444 8.20057,-8.20673 7.65563,-7.37626 8.29432,-7.6432 8.14198,-7.09745 7.59703,-6.21363 8.23573,-6.24624 7.69078,-5.3268 7.53551,-4.70693 8.18006,-4.49042 0.12012,-0.0594 0.35744,-0.18091 0.47757,-0.23728 0.95219,-0.46861 1.90732,-0.91054 3.81755,-1.70245 0.12891,-0.0563 0.12892,-0.0534 0.25781,-0.10974 0.51859,-0.2165 1.03422,-0.42117 2.06845,-0.80673 0.12893,-0.0474 0.1289,-0.0504 0.25782,-0.0979 0.51565,-0.18983 1.03423,-0.3737 2.06846,-0.70886 0.12305,-0.0386 0.12012,-0.0386 0.24025,-0.0801 0.48343,-0.15421 0.9639,-0.30253 1.93369,-0.57243 0.12011,-0.0326 0.12013,-0.0355 0.24025,-0.0682 0.48342,-0.13347 0.96684,-0.25508 1.93074,-0.48047 0.1172,-0.0267 0.12012,-0.0296 0.23732,-0.0534 0.4717,-0.10678 0.94633,-0.20761 0.12013,-0.0267 0.11719,-0.0237 0.23731,-0.0504 0.47171,-0.0949 0.94633,-0.18388 0.12013,-0.0208 0.11719,-0.0237 0.2373,-0.0445 0.47464,-0.083 0.94633,-0.16016 0.1172,-0.0208 0.11719,-0.0179 0.23732,-0.0386 0.47462,-0.0741 0.94634,-0.13644 0.25783,-0.0355 0.25488,-0.0327 0.51272,-0.0653 0.12892,-0.0179 0.12891,-0.0148 0.25782,-0.0327 0.51272,-0.0563 0.25783,-0.0297 0.2549,-0.0267 0.51271,-0.0534 1.02837,-0.092 0.12891,-0.009 0.12599,-0.0119 0.25782,-0.0207 0.51272,-0.0355 0.51566,-0.0355 0.5127,-0.0297 0.12892,-0.006 0.12598,-0.009 0.51565,-0.0237 0.25489,-0.0119 0.12891,-0.006 0.12892,-0.003 0.25782,-0.009 0.12598,-0.006 0.12892,-0.003 0.25782,-0.009 0.24025,-0.006 0.1172,-0.003 0.12011,0 0.36037,-0.009 0.12013,0 0.12011,-0.003 0.24025,0 0.1172,-0.003 0.96097,0 0.1172,0.003 0.24025,0 0.12011,0.003 0.12012,0 0.4805,0.0119 0.1172,0 0.24024,0.009 0.4805,0.0119 0.12011,0.006 0.12013,0.003 0.2373,0.0119 0.12013,0.003 0.36037,0.0179 0.47756,0.0237 0.12012,0.006 0.12013,0.009 0.72073,0.0445 0.1172,0.009 0.36036,0.0267 0.4805,0.0386 0.12892,0.009 0.12891,0.0119 0.26074,0.0236 0.51858,0.0474 0.12891,0.0148 0.13185,0.0119 0.25783,0.0267 0.5215,0.0564 0.12892,0.0148 0.12891,0.0179 0.26074,0.0296 0.5186,0.0653 1.04008,0.14237 0.12891,0.0179 0.12891,0.0207 0.26075,0.0386 0.51859,0.0801 1.04009,0.17498 0.25782,0.0474 0.26075,0.0474 0.51858,0.0979 1.04009,0.20761 0.12598,0.0267 0.1289,0.0267 0.2549,0.0534 0.50979,0.11271 1.01958,0.23727 2.03916,0.51904 0.12598,0.0355 0.12891,0.0355 0.76468,0.21355 1.01958,0.30253 2.03916,0.65547 0.11719,0.0386 0.12012,0.0415 0.23732,0.0801 0.47463,0.1661 0.95219,0.34404 1.90146,0.72962 0.12013,0.0474 0.11719,0.0474 0.24024,0.0949 0.47464,0.19574 0.95218,0.40337 1.90146,0.84827 0.1289,0.0594 0.12893,0.0622 0.25782,0.11863 0.51564,0.24617 1.0313,0.50422 2.0626,1.06179 4.12519,2.34901 0.12011,0.0712 0.36037,0.22244 0.48342,0.29659 0.96098,0.60802 1.92491,1.26349 3.85271,2.72568 0.11719,0.0889 0.12014,0.0889 0.23437,0.175 0.4717,0.35887 0.94341,0.72666 1.88974,1.50076 3.77361,3.2032 8.1947,7.89234 7.64391,8.55966 0.13478,0.16016 0.13184,0.16016 0.26661,0.32032 0.53323,0.64657 1.06645,1.31391 2.13584,2.69306 0.13184,0.17202 0.13477,0.17203 0.26662,0.34405 0.53322,0.69402 1.06646,1.40585 0.13184,0.17796 0.13478,0.17795 0.79983,1.07662 0.13186,0.18094 0.13476,0.18091 0.26662,0.36185 0.13184,0.18092 0.13477,0.18389 0.13185,0.18092 0.13477,0.18389"
     id="path44"
     inkscape:connector-curvature="0" />
  <flowRoot
     xml:space="preserve"
     id="flowRoot5188"
     style="fill:black;stroke:none;stroke-opacity:1;stroke-width:1px;stroke-linejoin:miter;stroke-linecap:butt;fill-opacity:1;font-family:sans-serif;font-style:normal;font-weight:normal;font-size:40px;line-height:125%;letter-spacing:0px;word-spacing:0px"><flowRegion
       id="flowRegion5190"><rect
         id="rect5192"
         width="153.9668"
         height="62.442089"
         x="795.49512"
         y="10.27724" /></flowRegion><flowPara
       id="flowPara5194"></flowPara></flowRoot>  <g
     id="g5269"
     transform="translate(-222.39649,-116.33047)">
    <rect
       y="127.59297"
       x="837.47125"
       height="46"
       width="120"
       id="rect5267"
       style="color:#000000;clip-rule:nonzero;display:inline;overflow:visible;visibility:visible;opacity:1;isolation:auto;mix-blend-mode:normal;color-interpolation:sRGB;color-interpolation-filters:linearRGB;solid-color:#000000;solid-opacity:1;fill:#ffffff;fill-opacity:1;fill-rule:nonzero;stroke:none;stroke-width:3;stroke-linecap:square;stroke-linejoin:miter;stroke-miterlimit:3.25;stroke-dasharray:none;stroke-dashoffset:0;stroke-opacity:1;color-rendering:auto;image-rendering:auto;shape-rendering:auto;text-rendering:auto;enable-background:accumulate" />
    <g
       id="g5259">
      <text
         xml:space="preserve"
         style="font-style:normal;font-weight:normal;font-size:40px;line-height:125%;font-family:sans-serif;letter-spacing:0px;word-spacing:0px;fill:#000000;fill-opacity:1;stroke:none;stroke-width:1px;stroke-linecap:butt;stroke-linejoin:miter;stroke-opacity:1"
         x="904.00317"
         y="145.80991"
         id="text5206"
         sodipodi:linespacing="125%"><tspan
           sodipodi:role="line"
           id="tspan5208"
           x="904.00317"
           y="145.80991"
           style="font-style:normal;font-variant:normal;font-weight:normal;font-stretch:normal;font-size:17.5px;font-family:Arial;-inkscape-font-specification:Arial">rocket</tspan></text>
      <text
         xml:space="preserve"
         style="font-style:normal;font-weight:normal;font-size:40px;line-height:125%;font-family:sans-serif;letter-spacing:0px;word-spacing:0px;fill:#000000;fill-opacity:1;stroke:none;stroke-width:1px;stroke-linecap:butt;stroke-linejoin:miter;stroke-opacity:1"
         x="904.60132"
         y="167.69781"
         id="text5206-0"
         sodipodi:linespacing="125%"><tspan
           sodipodi:role="line"
           id="tspan5208-3"
           x="904.60132"
           y="167.69781"
           style="font-style:normal;font-variant:normal;font-weight:normal;font-stretch:normal;font-size:17.5px;font-family:Arial;-inkscape-font-specification:Arial">stone</tspan></text>
      <path
         style="color:#000000;clip-rule:nonzero;display:inline;overflow:visible;visibility:visible;opacity:1;isolation:auto;mix-blend-mode:normal;color-interpolation:sRGB;color-interpolation-filters:linearRGB;solid-color:#000000;solid-opacity:1;fill:none;fill-opacity:1;fill-rule:nonzero;stroke:#803300;stroke-width:3;stroke-linecap:square;stroke-linejoin:miter;stroke-miterlimit:3.25;stroke-dasharray:none;stroke-dashoffset:0;stroke-opacity:1;color-rendering:auto;image-rendering:auto;shape-rendering:auto;text-rendering:auto;enable-background:accumulate"
         d="m 844.91242,139.64902 50,0"
         id="path5228"
         inkscape:connector-curvature="0" />
      <path
         style="fill:none;fill-rule:evenodd;stroke:#0000ff;stroke-width:3;stroke-linecap:butt;stroke-linejoin:miter;stroke-miterlimit:4;stroke-dasharray:none;stroke-opacity:1"
         d="m 844.91242,161.67792 50,0"
         id="path5228-0"
         inkscape:connector-curvature="0" />
    </g>
  </g>
</svg>
